<svg xmlns="http://www.w3.org/2000/svg" xmlns:xlink="http://www.w3.org/1999/xlink" width="40" zoomAndPan="magnify" viewBox="0 0 30 30.000001" height="40" preserveAspectRatio="xMidYMid meet" version="1.0"><defs><g/><clipPath id="2316d1d4b7"><path d="M 0.484375 0 L 29.515625 0 L 29.515625 29.03125 L 0.484375 29.03125 Z M 0.484375 0 " clip-rule="nonzero"/></clipPath></defs><g clip-path="url(#2316d1d4b7)"><path fill="#ffffff" d="M 0.484375 0 L 29.515625 0 L 29.515625 29.03125 L 0.484375 29.03125 Z M 0.484375 0 " fill-opacity="1" fill-rule="nonzero"/><path fill="#000000" d="M 0.484375 0 L 29.515625 0 L 29.515625 29.03125 L 0.484375 29.03125 Z M 0.484375 0 " fill-opacity="1" fill-rule="nonzero"/></g><path stroke-linecap="butt" transform="matrix(0.846931, 0, 0, 0.846931, 1.484967, -0.805724)" fill="none" stroke-linejoin="miter" d="M 11.852763 9.304117 L 17.138392 9.304117 C 20.187084 9.304117 20.131738 14.345297 17.083045 14.345297 L 11.852763 14.345297 Z M 9.085418 6.647465 L 9.085418 26.000433 L 17.834841 26.000433 C 21.547696 26.000433 23.452552 23.067047 23.452552 20.161335 C 23.452552 18.325662 22.654634 16.277827 20.436146 15.336929 C 22.377899 13.953257 22.622348 11.743993 21.852104 9.829912 C 21.127982 8.031138 19.578268 6.647465 17.138392 6.647465 Z M 11.852763 17.10803 L 17.834841 17.10803 C 19.712024 17.10803 20.662145 18.666968 20.662145 20.184396 C 20.662145 21.706436 19.712024 23.288435 17.834841 23.288435 L 11.852763 23.288435 Z M 11.852763 17.10803 " stroke="#ffffff" stroke-width="0.761552" stroke-opacity="1" stroke-miterlimit="4"/><g fill="#ffffff" fill-opacity="1"><g transform="translate(8.802979, 21.214477)"><g><path d="M 2.71875 -14.140625 L 7.199219 -14.140625 C 9.777344 -14.140625 9.730469 -9.875 7.152344 -9.875 L 2.71875 -9.875 Z M 0.375 -16.394531 L 0.375 0 L 7.785156 0 C 10.929688 0 12.546875 -2.484375 12.546875 -4.949219 C 12.546875 -6.496094 11.867188 -8.230469 9.992188 -9.027344 C 11.632812 -10.203125 11.84375 -12.078125 11.1875 -13.695312 C 10.578125 -15.21875 9.261719 -16.394531 7.199219 -16.394531 Z M 2.71875 -7.527344 L 7.785156 -7.527344 C 9.378906 -7.527344 10.179688 -6.214844 10.179688 -4.925781 C 10.179688 -3.636719 9.378906 -2.296875 7.785156 -2.296875 L 2.71875 -2.296875 Z M 2.71875 -7.527344 "/></g></g></g></svg>